#!OML:ASF E:/inclinewalkrobotboard/Project1/Captureday1/Session1/subject1.ASF
:FULLY-SPECIFIED
:DEGREES
338
root 0 0 0 -1.4998512269033646 -5.896548283069821 -8.068271927663254
lowerback 8.858047086058262 2.7562094691347214 6.518396843181989
upperback -0.11412805366113449 4.404635632781041 1.1319795821595395
thorax -4.96147237120318 2.0254316831046753 -3.060304577744806
lowerneck -14.418294098924642 -3.1676730365049477 -1.2697674219347364
upperneck 12.890995827158738 -4.425717398531055 2.2084355036840386
head 6.2925836889634486 -2.0518989137638597 0.48295228255272676
rclavicle -4.829222620945779E-15 -7.981080525852884E-17
rhumerus -29.507660242983818 -18.40676025542828 -83.4013431005056
rradius 23.85019621844446
rwrist 16.950023857050894
rhand -20.002468178989375 30.49991455969782
rfingers 7.125019999999995
rthumb 6.360712552278565 0.35330050874694763
lclavicle -5.641168286607537E-15 -5.0914517527822925E-16
lhumerus -35.21056620823683 8.64784698178073 80.22115544438934
lradius 15.617517438230813
lwrist -2.325292994672623
lhand -26.824555009249593 26.86295641364078
lfingers 7.1250199999999815
lthumb -0.30017087303336876 56.88681205077286
rfemur -8.56914094841951 5.498274684197577 29.34238480263274
rtibia 41.36872856289395
rfoot -8.924514143988127 -5.515009131811201
rtoes 6.4183244109749005
lfemur -21.392339176495476 1.2843840318625617 -16.04004993189953
ltibia 40.87243648890585
lfoot 0.08670690781699619 -5.800253477240343
ltoes -3.987300617493684
339
root 0 0 0 -1.5907529213827 -6.0048778669567415 -7.947293323799748
lowerback 8.68895410303821 2.7997217694254366 6.4234635802311955
upperback -0.0673260471343833 4.44276673111193 1.1112332248878933
thorax -4.809951094163075 2.0512273000254986 -3.0227280048896086
lowerneck -14.089021154591768 -3.188633969186248 -1.3661647467807136
upperneck 12.772833332768636 -4.46694300755093 2.486358955913121
head 6.191936719145332 -2.0640259483387737 0.5916561855393953
rclavicle -4.768868244354625E-15 -3.4476774956706455E-16
rhumerus -29.841144509079832 -17.90368183412952 -83.72617007921409
rradius 23.278917588084873
rwrist 16.53615907711692
rhand -19.816277509285474 30.656975530852534
rfingers 7.125019999999996
rthumb 6.538828316838982 0.5219895605825684
lclavicle -5.680046154454118E-15 -6.895921063043626E-16
lhumerus -35.143050652615585 8.59311973360847 80.19976143809781
lradius 15.675300452239629
lwrist -2.2550236547513696
lhand -26.868471241003256 26.908610319752537
lfingers 7.125019999999982
lthumb -0.3423866504375095 56.937427341912915
rfemur -8.827558341402693 5.619474838513206 29.5305832624692
rtibia 40.94978666950411
rfoot -9.345793871919518 -5.71880868097715
rtoes 6.133634004113361
lfemur -21.348043518705357 1.1281312857358143 -16.016794959237217
ltibia 40.49154400300914
lfoot -0.208086541641606 -5.514010753922525
ltoes -4.222930528927741
340
root 0 0 0 -1.6836032742933333 -6.095829234085981 -7.79454170046942
lowerback 8.565211711111804 2.851570712378522 6.296337923875888
upperback -0.045400368250147996 4.4888868654059575 1.0781678676232342
thorax -4.711685856341435 2.081844782074203 -2.9818568756434556
lowerneck -13.816758869950082 -3.223513805499547 -1.4636777514211956
upperneck 12.724575618490128 -4.531151148212572 2.7572522254636485
head 6.1308417139584055 -2.0856486937767778 0.694830677936046
rclavicle -4.623911783729118E-15 -6.587306228401558E-16
rhumerus -30.154639601749558 -17.48641348061205 -83.99237428166303
rradius 22.668997426227016
rwrist 16.084838884376943
rhand -19.616237819668257 30.766551189674985
rfingers 7.125019999999997
rthumb 6.7302450460743675 0.6483200164260978
lclavicle -5.5955351423735905E-15 -8.533870039653949E-16
lhumerus -35.10795768806797 8.559925242712001 80.1034560183751
lradius 15.756981857062303
lwrist -2.1605768250378223
lhand -26.932173592261087 26.974472442011802
lfingers 7.125019999999983
lthumb -0.40400506281970294 57.01136339056836
rfemur -8.93210308107216 5.718298384916309 29.54131525626744
rtibia 40.14229741349688
rfoot -9.746358593040553 -5.871606422868783
rtoes 5.755573003399905
lfemur -21.166457155545594 0.9575809558043358 -16.067993019259532
ltibia 40.03049833060891
lfoot -0.5517104346832795 -5.232517854032892
ltoes -4.3635622142569765
341
root 0 0 0 -1.7639634928041419 -6.148970077722469 -7.645045487174457
lowerback 8.505251241074584 2.8998301830620448 6.1576058291791025
upperback -0.03627707397857699 4.531299100165749 1.0397602548617333
thorax -4.664845500532269 2.109964764470428 -2.942149697457706
lowerneck -13.604277205632071 -3.269926579411659 -1.5433815150864674
upperneck 12.692254390959528 -4.611888589335998 2.9889572093048056
head 6.08949675563544 -2.1154262222710134 0.7799198134326799
rclavicle -4.3923879088745005E-15 -9.620174870609763E-16
rhumerus -30.415007152886282 -17.21180261997361 -84.1700581009475
rradius 22.068502712382305
rwrist 15.636886423984276
rhand -19.421694123324656 30.82638606897732
rfingers 7.1250199999999975
rthumb 6.916351351111219 0.7275989549228115
lclavicle -5.4060577256819E-15 -9.778495087044222E-16
lhumerus -35.095903664857104 8.533208829381133 79.96851735092689
lradius 15.863497626641777
lwrist -2.0455811295280655
lhand -27.00461177633436 27.05097140177085
lfingers 7.125019999999984
lthumb -0.473916173086006 57.097683863016236
rfemur -9.064153992006803 5.758372052396689 29.420319666490514
rtibia 39.46708130667719
rfoot -9.971176579579325 -5.975375146051899
rtoes 5.438855270640598
lfemur -20.84035074439221 0.7948283026947491 -16.215920306572144
ltibia 39.562489866279
lfoot -0.8780728999298955 -5.0219345158923705
ltoes -4.293995973390619
342
root 0 0 0 -1.8203735238595617 -6.162879868435314 -7.525044133960932
lowerback 8.50513214813608 2.937116348995861 6.027781696467109
upperback -0.026277838931231617 4.563238941176989 1.0056346016397408
thorax -4.6523508935281415 2.1313716981251436 -2.9046745441716606
lowerneck -13.431511199141141 -3.320751550446304 -1.5963196161673756
upperneck 12.666081770911017 -4.696773763193353 3.166825679180732
head 6.059151443404048 -2.148578447210005 0.8420606811317399
rclavicle -4.116734160283515E-15 -1.2114244957625412E-15
rhumerus -30.590632246041373 -17.07773757983402 -84.2468972899814
rradius 21.56533220161476
rwrist 15.219719965388563
rhand -19.256499297582852 30.84914263816914
rfingers 7.1250199999999975
rthumb 7.0742024541176995 0.7686233926191619
lclavicle -5.16877722078219E-15 -1.061091204067539E-15
lhumerus -35.092093038886155 8.498167484376065 79.83758332317825
lradius 15.988447415855301
lwrist -1.9206435951931415
lhand -27.07272397354245 27.12365228180505
lfingers 7.125019999999985
lthumb -0.5393151747890483 57.17991148009601
rfemur -9.293831462132996 5.7395777641218775 29.22618672916105
rtibia 39.125124438017515
rfoot -9.998591513622708 -6.043431013497921
rtoes 5.239152082467623
lfemur -20.420824828555162 0.6448765754345605 -16.42662582390336
ltibia 39.123311961303585
lfoot -1.168548650770873 -4.879041209166827
ltoes -4.07074312934267
343
root 0 0 0 -1.8597807787536416 -6.153964077841158 -7.43310703328463
lowerback 8.543396591301315 2.9622655741306665 5.914696214889412
upperback -0.008846750693194419 4.583302343939388 0.9810821558321138
thorax -4.654420983151231 2.145532623387087 -2.8671890708095775
lowerneck -13.288419736362199 -3.368600014009047 -1.6290220092212002
upperneck 12.660592282426187 -4.773877521633261 3.295227705248226
head 6.0409585098070915 -2.1798094474726715 0.8846542320675443
rclavicle -3.852562158064421E-15 -1.3887786019216436E-15
rhumerus -30.678623307716098 -17.05153498350026 -84.23597921083578
rradius 21.211858278287615
rwrist 14.8493308937996
rhand -19.13484630685435 30.848241053439445
rfingers 7.125019999999998
rthumb 7.190206636586036 0.7820121552506265
lclavicle -4.9369726431797024E-15 -1.1132238629875974E-15
lhumerus -35.08718497763786 8.45054360953239 79.73543665757562
lradius 16.11949512996745
lwrist -1.7975552172181897
lhand -27.128853523427093 27.185252011321833
lfingers 7.125019999999985
lthumb -0.5929221458884273 57.24938312883421
rfemur -9.606296542376576 5.681227376572193 29.01050791765607
rtibia 39.09603543004113
rfoot -9.882553479188484 -6.08937017332226
rtoes 5.14753086531294
lfemur -19.976395379690768 0.5054080832592032 -16.652422221694227
ltibia 38.72938384970076
lfoot -1.421519179221729 -4.777637611783929
ltoes -3.7919594733119695
344
root 0 0 0 -1.8927118267016425 -6.1377464825194075 -7.358730724540996
lowerback 8.600868083847264 2.9772018469785198 5.8181522138470765
upperback 0.017523736607414547 4.592930986422251 0.9661596647139983
thorax -4.658108737239896 2.153607912802306 -2.8286450078670065
lowerneck -13.170507873522974 -3.4095167805419933 -1.6505956779620186
upperneck 12.682325462883657 -4.837442271709886 3.38563176563699
head 6.035046251602789 -2.2062265855732406 0.9133683191515547
rclavicle -3.632999040732865E-15 -1.5007821493631389E-15
rhumerus -30.704301246136247 -17.09137941983723 -84.17000455236996
rradius 20.999078121480984
rwrist 14.531934792705169
rhand -19.056142511860827 30.834549483670834
rfingers 7.125019999999998
rthumb 7.265006421965399 0.7779652330228188
lclavicle -4.739913113658132E-15 -1.1476103984541125E-15
lhumerus -35.077548262483845 8.393072932642134 79.66589837143243
lradius 16.24669987955566
lwrist -1.682702259835151
lhand -27.1726180140681 27.236694444883618
lfingers 7.125019999999986
lthumb -0.6345347250354711 57.30674269142884
rfemur -9.96271744569843 5.604855270304575 28.80754509478828
rtibia 39.27959455816086
rfoot -9.69165400196203 -6.124478048167234
rtoes 5.130844206980768
lfemur -19.552227929724882 0.3714685236148889 -16.86508568513114
ltibia 38.379855195575445
lfoot -1.641929816908057 -4.695345372116911
ltoes -3.5126915953195628
345
root 0 0 0 -1.9244595115563667 -6.121932765085502 -7.294174252588757
lowerback 8.667664166416976 2.9842783825753454 5.735739161824632
upperback 0.05262158868850511 4.594216121532616 0.9586449321721253
thorax -4.657788229915332 2.1569453967603653 -2.7896725477968065
lowerneck -13.073456585116991 -3.442691371680583 -1.6667192307051046
upperneck 12.726183312030086 -4.886828511233717 3.44830858213607
head 6.038396356152137 -2.2272336483758823 0.932659704260776
rclavicle -3.462929170956407E-15 -1.5647100693302406E-15
rhumerus -30.693972275649045 -17.161401337283316 -84.0799638912114
rradius 20.894940137071004
rwrist 14.269297095509774
rhand -19.012947063980555 30.81729966685306
rfingers 7.125019999999999
rthumb 7.3057975253016725 0.7662187259756124
lclavicle -4.584205714455598E-15 -1.173258000112948E-15
lhumerus -35.06269223139852 8.330024470994838 79.622201879108
lradius 16.365496203979706
lwrist -1.577416480885987
lhand -27.207135744381 27.28143906935965
lfingers 7.125019999999987
lthumb -0.6672500161148154 57.35581015686222
rfemur -10.330842138438083 5.526168242076019 28.632685563194688
rtibia 39.572316140163636
rfoot -9.479834920423372 -6.156904797798755
rtoes 5.153980609773076
lfemur -19.162610622871565 0.23673500669809222 -17.0561160446301
ltibia 38.05943735030088
lfoot -1.8421279405827615 -4.615161923980567
ltoes -3.2532507909221557
